<svg viewBox="0 0 20 17" fill="current" xmlns="http://www.w3.org/2000/svg">
<path d="M11.975 11.3763C11.975 11.7071 11.7071 11.975 11.3762 11.975H7.78375C7.45294 11.975 7.185 11.7071 7.185 11.3763V9.58H0V14.9688C0 15.9268 0.83825 16.765 1.79625 16.765H17.3638C18.3218 16.765 19.16 15.9268 19.16 14.9688V9.58H11.975V11.3763ZM17.3638 3.5925H14.37V1.79625C14.37 0.83825 13.5318 0 12.5738 0H6.58625C5.62825 0 4.79 0.83825 4.79 1.79625V3.5925H1.79625C0.83825 3.5925 0 4.43075 0 5.38875V8.3825H19.16V5.38875C19.16 4.43075 18.3218 3.5925 17.3638 3.5925ZM11.975 3.5925H7.185V2.395H11.975V3.5925Z" fill="current"/>
</svg>
