<svg width="103" height="102" viewBox="0 0 103 102" fill="current" xmlns="http://www.w3.org/2000/svg">
<path d="M20.0772 30.9266L23.0432 32.6391C22.7965 33.0188 22.5602 33.4044 22.3341 33.796C13.0345 49.9034 18.5387 70.5043 34.646 79.8039C35.0374 80.0298 35.4347 80.2455 35.8379 80.4508L34.1244 83.4188C40.2638 86.6748 46.9346 88.0117 53.457 87.6552C53.3444 86.5184 53.2523 85.3935 53.15 84.2627C59.5321 83.9352 65.7354 81.8006 70.9902 78.0741C71.6039 79.0329 72.2234 79.9815 72.837 80.9403C77.1103 77.9388 80.8172 73.9919 83.6017 69.1689C88.1771 61.2441 89.4822 52.3241 87.9505 43.965L84.652 44.8499C83.0018 35.3643 77.3146 26.6395 68.3237 21.4486C67.8088 21.1513 67.2982 20.8703 66.7757 20.6098L68.4892 17.6419C65.1662 15.9294 61.6767 14.7667 58.1553 14.1351C57.9228 15.2513 57.7066 16.3631 57.5007 17.4809C49.2462 15.9854 40.7422 17.6573 33.6947 22.0389C33.2955 20.9703 32.8861 19.8957 32.4869 18.8271C27.5796 21.7374 23.2851 25.7985 20.0772 30.9266ZM67.3047 23.2374C82.4028 31.9543 87.5867 51.326 78.8643 66.4338C70.1418 81.5415 50.7734 86.7379 35.6753 78.0211C20.5773 69.3042 15.3933 49.9325 24.1158 34.8247C32.8382 19.7169 52.2066 14.5205 67.3047 23.2374Z" fill="current"/>
</svg>
